<svg width="63" height="60" viewBox="0 0 63 60" fill="none" xmlns="http://www.w3.org/2000/svg">
<g id="Vector">
<path fill-rule="evenodd" clip-rule="evenodd" d="M40.4567 0.00921388C40.2207 0.0146979 39.9926 0.092728 39.8066 0.231662L32.8747 5.02026C32.5607 5.24462 32.3447 5.5718 32.2707 5.93832C32.1967 6.30484 32.2686 6.6846 32.4706 7.0039L39.8726 18.2528C40.0446 18.516 40.2467 18.6674 40.4267 18.6674C40.6067 18.6674 40.8126 18.4844 40.9486 18.1633L43.8466 11.295C44.1746 10.3764 44.2106 9.38656 43.9486 8.44916L41.3187 0.683148C41.2747 0.496148 41.1667 0.328182 41.0127 0.20485C40.8567 0.0815164 40.6646 0.00957758 40.4626 0" fill="#FAAF00"/>
<path fill-rule="evenodd" clip-rule="evenodd" d="M30.4606 7.35362C30.1826 6.42948 29.6467 5.6103 28.9207 4.99832L22.5507 0.219374C22.3807 0.0823218 22.1706 0.00546014 21.9526 0C21.7686 0.00955824 21.5906 0.0813518 21.4486 0.204436C21.3066 0.32752 21.2086 0.495146 21.1666 0.681768L18.7346 8.41504C18.6286 8.7706 18.6526 9.15446 18.8046 9.4921C18.9566 9.82974 19.2246 10.0971 19.5566 10.2423L31.4486 15.1815C31.7726 15.3128 32.0466 15.3049 32.1566 15.1473C32.2086 15.0493 32.2366 14.9415 32.2446 14.8308C32.2526 14.7201 32.2366 14.609 32.1986 14.505L30.4606 7.35362Z" fill="#FAAF00"/>
<path fill-rule="evenodd" clip-rule="evenodd" d="M5.15265 11.8846L7.80066 19.3747C7.90666 19.6631 8.10864 19.9135 8.37664 20.0908C8.64464 20.2682 8.96666 20.3636 9.29666 20.3638C9.41866 20.364 9.53864 20.3508 9.65664 20.3244L23.1606 17.2116C23.4866 17.1338 23.7147 16.9961 23.7527 16.8291C23.7907 16.6622 23.6686 16.4467 23.4066 16.23L17.4427 11.3798C16.6507 10.7416 15.6767 10.3258 14.6367 10.1816H6.08065C5.71665 10.1816 5.43064 10.5526 5.25064 10.7807C5.07664 11.1213 5.04464 11.5094 5.16064 11.8706" fill="#FAAF00"/>
<path fill-rule="evenodd" clip-rule="evenodd" d="M18.6306 24.5552C18.5546 24.394 18.3046 24.2884 17.9806 24.2522L10.2466 23.7588H10.0626C9.10862 23.7816 8.17861 24.049 7.37661 24.532L0.458614 29.2196C0.354614 29.2742 0.264609 29.3472 0.190609 29.4346C0.116609 29.5222 0.0646195 29.6222 0.0326195 29.7292C0.000619497 29.8362 -0.00738148 29.9478 0.00661852 30.058C0.0226185 30.168 0.0606017 30.2742 0.120602 30.3702C0.198602 30.5038 0.316614 30.614 0.458614 30.6886L7.37661 35.3802C7.63861 35.5526 7.95262 35.6428 8.27462 35.6378C8.50262 35.6412 8.72861 35.5978 8.93661 35.5104C9.14461 35.4232 9.32862 35.2942 9.47662 35.1328L18.4106 25.1814C18.6306 24.9366 18.7146 24.7032 18.6406 24.537" fill="#FAAF00"/>
<path fill-rule="evenodd" clip-rule="evenodd" d="M16.9586 32.9574C16.9966 32.742 16.9446 32.5204 16.8146 32.3418C16.7806 32.3088 16.7406 32.2832 16.6966 32.2662C16.6526 32.2492 16.6046 32.2416 16.5566 32.2434C16.3726 32.2566 16.1946 32.3172 16.0426 32.419L9.57058 36.3324C8.75258 36.8894 8.1226 37.667 7.7626 38.5676L5.1586 46.266C5.1026 46.4096 5.08058 46.5638 5.09658 46.7164C5.11258 46.869 5.16459 47.0162 5.24859 47.1466C5.34659 47.266 5.47259 47.3618 5.61459 47.426C5.75859 47.4902 5.91658 47.521 6.07458 47.516H14.4926C14.8786 47.5056 15.2486 47.3578 15.5286 47.101C15.8106 46.8442 15.9826 46.4964 16.0146 46.1246L16.9586 32.9574Z" fill="#FAAF00"/>
<path fill-rule="evenodd" clip-rule="evenodd" d="M22.9226 41.1408C22.7486 40.8774 22.5486 40.7286 22.3686 40.7286C22.1886 40.7286 21.9806 40.9116 21.8406 41.233L18.9446 48.1062C18.6166 49.0254 18.5826 50.016 18.8426 50.954L21.4826 58.7122C21.5286 58.8998 21.6366 59.068 21.7926 59.1914C21.9466 59.3146 22.1406 59.3866 22.3426 59.396C22.5786 59.3896 22.8066 59.3116 22.9926 59.1734L29.9186 54.3814C30.2326 54.1564 30.4466 53.829 30.5206 53.4624C30.5946 53.0958 30.5246 52.716 30.3206 52.3964L22.9226 41.1408Z" fill="#FAAF00"/>
<path fill-rule="evenodd" clip-rule="evenodd" d="M32.3226 52.0398C32.5986 52.9662 33.1346 53.788 33.8606 54.4022L40.2326 59.1746C40.4026 59.3132 40.6126 59.391 40.8306 59.3964C41.0166 59.3882 41.1946 59.317 41.3366 59.1938C41.4786 59.0706 41.5786 58.9024 41.6206 58.7152L44.0526 50.9884C44.1626 50.6316 44.1406 50.245 43.9866 49.9052C43.8346 49.5652 43.5646 49.2966 43.2306 49.1522L31.3426 44.217C31.2126 44.16 31.0746 44.1284 30.9346 44.1238C30.8786 44.12 30.8226 44.1298 30.7706 44.1526C30.7186 44.1754 30.6726 44.2106 30.6366 44.2552C30.5846 44.3528 30.5546 44.4606 30.5466 44.5712C30.5386 44.6818 30.5546 44.7928 30.5906 44.897L32.3226 52.0398Z" fill="#FAAF00"/>
<path fill-rule="evenodd" clip-rule="evenodd" d="M57.6386 47.9184L54.9966 40.068C54.8886 39.7656 54.6866 39.5032 54.4186 39.3174C54.1486 39.1314 53.8266 39.0314 53.4966 39.0312C53.3766 39.0326 53.2586 39.0466 53.1426 39.0726L39.6326 42.3378C39.3086 42.4166 39.0806 42.5636 39.0386 42.7386C38.9966 42.9136 39.1266 43.1394 39.3906 43.3666L45.3506 48.2056C46.1646 48.8008 47.1426 49.1512 48.1626 49.213H56.7086C56.8666 49.218 57.0246 49.1866 57.1686 49.1212C57.3146 49.0556 57.4386 48.958 57.5366 48.8362C57.6246 48.7044 57.6766 48.5548 57.6926 48.3994C57.7106 48.244 57.6886 48.087 57.6306 47.941" fill="#FAAF00"/>
<path fill-rule="evenodd" clip-rule="evenodd" d="M44.1566 34.8398C44.2246 35.0008 44.4806 35.1064 44.8046 35.1424L52.5566 35.638H52.7426C53.6946 35.6128 54.6206 35.3458 55.4226 34.8656L62.3326 30.178C62.4706 30.1046 62.5866 29.9978 62.6686 29.869C62.7486 29.74 62.7906 29.5934 62.7906 29.4442C62.7906 29.295 62.7486 29.1484 62.6686 29.0196C62.5866 28.8906 62.4706 28.784 62.3326 28.7104L55.4206 24.0254C55.1586 23.85 54.8426 23.7566 54.5206 23.759C54.2926 23.7558 54.0666 23.7996 53.8586 23.8868C53.6526 23.9738 53.4666 24.1026 53.3186 24.2636L44.3806 34.2064C44.1586 34.4484 44.0746 34.684 44.1506 34.8502" fill="#FAAF00"/>
<path fill-rule="evenodd" clip-rule="evenodd" d="M53.2966 21.4474C54.0606 20.9402 54.6506 20.2334 54.9886 19.415L57.6426 11.7669C57.7446 11.4272 57.7146 11.0645 57.5586 10.7431C57.4066 10.5437 57.1346 10.1816 56.8006 10.1816H48.2006C47.4706 10.1816 46.8366 10.9844 46.7846 11.6742L45.8306 24.7576C45.8026 24.9652 45.8506 25.1756 45.9666 25.3546C46.1006 25.4944 46.3726 25.4944 46.6726 25.3152L53.2966 21.4474Z" fill="#FAAF00"/>
</g>
</svg>
